<?xml version="1.0" standalone="no"?>
<!DOCTYPE svg PUBLIC "-//W3C//DTD SVG 20010904//EN"
 "http://www.w3.org/TR/2001/REC-SVG-20010904/DTD/svg10.dtd">
<svg version="1.0" xmlns="http://www.w3.org/2000/svg"
 width="577.000000pt" height="577.000000pt" viewBox="0 0 577.000000 577.000000"
 preserveAspectRatio="xMidYMid meet">
<metadata>
Created by potrace 1.14, written by Peter Selinger 2001-2017
</metadata>
<g transform="translate(0.000000,577.000000) scale(0.100000,-0.100000)"
fill="#000000" stroke="none">
<path d="M3170 4939 c0 -4 -14 -5 -30 -4 -17 1 -33 -1 -35 -6 -3 -4 -15 -6
-27 -4 -11 3 -18 1 -14 -3 8 -8 86 -10 86 -2 0 8 235 4 248 -4 7 -4 12 -2 12
4 0 6 5 8 10 5 6 -3 52 -8 103 -10 50 -2 92 -4 92 -5 0 -1 23 -3 50 -6 74 -7
110 -11 110 -14 0 -1 9 -4 20 -6 36 -5 79 -15 120 -26 48 -14 42 -12 85 -22
19 -4 62 -17 95 -28 33 -12 68 -20 78 -20 9 0 17 -4 17 -10 0 -6 3 -9 6 -5 4
3 25 -3 48 -15 22 -11 42 -20 43 -20 2 1 23 -7 49 -18 25 -11 48 -20 50 -20
12 0 200 -93 214 -105 8 -7 18 -14 23 -14 12 -1 102 -54 105 -63 2 -4 7 -8 12
-8 16 0 135 -83 219 -154 121 -100 277 -258 347 -351 66 -86 112 -156 110
-166 -1 -4 6 -15 16 -25 33 -38 140 -269 177 -384 12 -36 25 -72 30 -80 5 -9
12 -36 16 -60 24 -146 37 -186 56 -174 6 4 5 12 -3 21 -7 9 -12 19 -11 22 2 3
1 20 -2 36 -3 17 -7 53 -10 80 -9 110 -70 287 -151 442 -122 234 -286 444
-464 593 -36 30 -80 68 -98 85 -44 39 -139 105 -152 105 -6 0 -10 4 -10 9 0 5
-15 16 -32 25 -18 9 -67 37 -108 63 -158 96 -347 180 -525 232 -38 11 -73 21
-77 21 -4 0 -26 7 -48 15 -22 8 -40 12 -40 10 0 -2 -15 1 -32 6 -18 5 -51 12
-73 15 -22 3 -51 8 -65 11 -14 2 -45 6 -70 8 -25 3 -65 7 -90 9 -25 3 -90 8
-145 11 -54 4 -103 9 -107 11 -4 3 -8 0 -8 -6 0 -6 -5 -8 -12 -4 -14 9 -208
11 -208 3z"/>
<path d="M3030 4921 c0 -5 7 -11 14 -14 10 -4 13 -1 9 9 -6 15 -23 19 -23 5z"/>
<path d="M2910 4910 c0 -4 -18 -5 -40 -4 -22 1 -40 -2 -40 -6 0 -5 -9 -7 -20
-5 -11 2 -20 1 -20 -3 0 -4 -11 -9 -26 -10 -14 -1 -33 -6 -43 -11 -12 -7 -22
-6 -29 1 -13 13 -15 8 -6 -16 5 -13 9 -13 27 -1 12 7 36 16 52 19 49 8 74 15
85 21 6 3 10 0 10 -7 0 -9 3 -9 8 -2 4 6 19 10 35 9 15 -1 27 2 27 7 0 5 4 7
9 3 5 -3 12 -2 15 3 2 4 -6 8 -20 8 -13 0 -24 -3 -24 -6z"/>
<path d="M2970 4912 c0 -5 7 -9 15 -9 8 0 12 4 9 9 -3 4 -9 8 -15 8 -5 0 -9
-4 -9 -8z"/>
<path d="M2650 4860 c0 -6 -4 -9 -9 -6 -5 3 -25 -1 -45 -9 -20 -9 -41 -13 -46
-10 -6 4 -10 0 -10 -8 0 -7 7 -14 15 -14 8 0 15 3 15 7 0 4 7 7 15 8 8 1 22 3
30 4 8 1 15 4 15 8 0 4 12 6 26 4 15 -1 24 2 21 9 -5 15 -27 21 -27 7z"/>
<path d="M2507 4823 c-11 -11 -8 -20 8 -20 8 0 15 6 15 14 0 14 -12 17 -23 6z"/>
<path d="M2480 4812 c0 -5 -6 -9 -12 -9 -24 -1 -63 -11 -93 -23 -16 -7 -41
-17 -55 -22 -14 -6 -38 -16 -55 -23 -34 -15 -67 -28 -75 -29 -3 -1 -40 -20
-82 -44 -42 -23 -80 -42 -83 -42 -6 0 -88 -52 -95 -61 -3 -3 -21 -14 -40 -24
-18 -10 -40 -24 -48 -31 -7 -8 -17 -14 -22 -14 -4 0 -27 -16 -50 -35 -23 -19
-37 -35 -32 -35 6 0 17 7 25 15 8 8 17 11 21 8 3 -4 6 -2 6 3 0 6 18 20 40 33
22 12 40 27 40 32 0 6 5 7 10 4 6 -3 10 -1 10 6 0 7 3 9 7 6 3 -4 21 4 38 18
18 13 35 21 39 18 3 -4 6 -1 6 6 0 7 4 10 8 7 5 -3 19 4 30 15 12 11 22 17 22
14 0 -3 24 7 53 22 28 15 55 26 60 25 4 -1 7 3 7 8 0 6 6 10 13 10 7 0 30 9
52 20 22 11 45 20 52 20 7 0 13 5 13 10 0 6 3 9 8 8 4 -1 24 6 46 15 21 9 44
17 52 17 7 0 16 5 19 10 3 6 15 10 26 10 10 0 19 4 19 10 0 5 7 7 15 4 9 -4
15 0 15 10 0 9 -2 16 -5 16 -3 0 -5 -4 -5 -8z"/>
<path d="M3178 4305 c-2 -1 -30 -5 -63 -8 -177 -17 -421 -83 -579 -157 -158
-74 -339 -197 -444 -300 -67 -67 -136 -150 -125 -150 4 0 1 -6 -7 -13 -18 -14
-24 -37 -10 -37 6 0 10 5 10 10 0 13 150 164 204 205 21 17 44 35 50 40 12 11
88 61 176 116 258 161 614 256 945 253 134 -1 216 -7 279 -20 12 -3 55 -11 96
-19 139 -28 226 -56 390 -129 81 -35 262 -146 298 -183 7 -7 17 -13 22 -13 5
0 60 -51 122 -113 206 -205 322 -412 374 -667 24 -120 24 -387 0 -485 -3 -11
-10 -40 -16 -65 -32 -133 -122 -317 -220 -449 -33 -45 -58 -81 -55 -81 3 0 1
-10 -5 -23 -10 -20 -10 -20 3 -4 8 9 17 17 20 17 13 0 93 94 136 159 24 36 67
116 96 176 45 95 59 134 81 228 2 9 6 27 9 40 19 78 26 321 12 432 -37 303
-241 643 -517 861 -61 48 -203 144 -213 144 -3 0 -31 15 -64 33 -140 80 -371
156 -550 182 -23 3 -57 8 -75 11 -35 6 -374 14 -380 9z"/>
<path d="M158 4199 c-24 -15 84 -148 161 -197 31 -20 90 -47 131 -60 72 -23
88 -24 410 -27 184 -2 351 -6 370 -9 261 -43 424 -107 539 -212 48 -42 51 -33
20 53 -32 89 -47 118 -85 170 -77 103 -190 187 -314 232 -133 49 -202 54 -728
55 -272 1 -498 -2 -504 -5z"/>
<path d="M1380 3815 c0 -3 15 -26 34 -52 61 -87 88 -229 64 -337 -27 -123
-117 -224 -235 -266 -59 -20 -91 -24 -250 -27 -148 -4 -183 -2 -184 9 0 7 -1
47 -3 88 -2 42 -10 92 -20 115 -22 51 -88 112 -152 141 -51 22 -151 37 -160
23 -3 -6 -7 -526 -4 -652 0 -17 18 -18 363 -14 199 2 376 7 392 10 17 4 44 10
60 13 40 8 152 48 196 71 113 59 214 164 269 276 73 151 80 262 25 364 -51 94
-146 161 -302 214 -95 32 -93 31 -93 24z"/>
<path d="M3218 3665 c-2 -1 -28 -6 -58 -9 -66 -8 -238 -62 -262 -83 -14 -12
-56 -16 -215 -17 l-198 -1 -3 -47 -3 -48 65 0 66 0 0 -193 0 -192 59 0 c33 0
63 3 67 7 4 4 7 90 8 190 l1 183 59 2 c57 1 81 14 72 39 -5 12 9 39 21 40 23
1 80 18 89 26 7 5 29 10 50 12 22 2 51 8 66 14 49 20 282 31 368 19 114 -17
142 -25 245 -69 193 -83 350 -236 422 -409 37 -91 51 -169 51 -277 -1 -98 9
-125 33 -96 10 12 14 46 14 118 -1 146 -13 201 -70 316 -93 186 -263 329 -487
411 -82 31 -95 34 -153 44 -16 3 -38 8 -47 11 -19 6 -255 14 -260 9z"/>
<path d="M2069 3466 c-23 -50 -71 -151 -105 -224 -35 -73 -65 -140 -66 -149
-2 -13 8 -16 56 -18 65 -2 78 6 98 60 l12 36 109 -3 109 -3 16 -40 c20 -52 15
-48 75 -51 82 -3 81 -3 69 -17 -32 -38 -40 -268 -11 -303 13 -16 34 -19 24 -4
-3 6 -2 10 3 10 6 0 7 14 3 33 -9 38 -7 104 4 172 4 28 9 59 10 70 9 61 18 89
42 132 14 27 34 62 43 78 9 17 14 40 11 53 l-6 23 -17 -21 c-10 -11 -18 -23
-18 -26 0 -3 -9 -18 -19 -33 -11 -15 -23 -39 -26 -54 -4 -15 -11 -27 -17 -27
-5 0 -6 -5 -2 -12 4 -6 8 -24 8 -38 2 -65 -23 -20 -193 342 l-50 106 -59 0
-60 -1 -43 -91z m157 -195 c-6 -9 -111 -4 -109 5 1 5 14 36 28 69 l27 60 29
-64 c16 -35 27 -66 25 -70z"/>
<path d="M3086 3484 c-20 -41 -36 -77 -36 -79 0 -2 -34 -74 -75 -160 -41 -86
-73 -160 -70 -164 2 -4 30 -7 62 -7 57 2 87 11 79 24 -2 4 4 21 14 37 l17 30
105 3 106 3 17 -46 c10 -26 25 -46 34 -46 41 -4 107 -5 118 -1 7 2 -1 28 -24
74 -19 39 -54 112 -78 162 -23 50 -59 126 -79 169 l-36 77 -59 0 -58 0 -37
-76z m141 -177 c18 -34 16 -38 -34 -41 -70 -5 -73 1 -40 73 l29 65 15 -35 c8
-19 22 -47 30 -62z"/>
<path d="M5690 3096 c0 -7 3 -15 6 -19 6 -6 15 -88 18 -164 0 -24 5 -43 9 -43
5 0 5 -6 0 -12 -4 -7 -8 -17 -9 -23 -11 -57 -14 -78 -20 -130 -9 -89 -9 -89
-17 -101 -3 -6 -9 -29 -12 -50 -3 -21 -9 -55 -13 -74 -5 -19 -10 -39 -11 -45
-1 -5 -9 -35 -18 -65 -10 -30 -17 -57 -18 -60 0 -3 -4 -11 -8 -17 -5 -7 -10
-21 -12 -30 -2 -10 -8 -31 -15 -48 -6 -16 -10 -30 -8 -31 2 0 -3 -8 -11 -17
-7 -10 -10 -17 -6 -17 4 0 2 -7 -5 -15 -7 -8 -9 -15 -6 -15 4 0 0 -7 -8 -16
-17 -17 -22 -59 -6 -49 6 3 10 13 10 21 0 8 6 17 14 20 8 3 18 19 21 35 4 16
12 35 19 42 17 17 74 172 81 221 3 21 8 42 11 47 3 5 7 23 9 41 2 18 7 52 10
76 4 24 8 49 9 55 1 7 4 17 7 22 20 33 42 255 26 255 -5 0 -4 6 2 13 6 8 8 16
5 20 -3 3 -8 36 -10 74 -2 37 -6 77 -7 87 -4 21 -37 32 -37 12z"/>
<path d="M1785 3029 c-16 -13 -31 -27 -33 -31 -2 -5 -8 -8 -13 -8 -6 0 -15 -4
-22 -10 -14 -11 -104 -77 -137 -100 -12 -8 -56 -40 -99 -70 -42 -31 -147 -107
-233 -169 -87 -62 -158 -116 -158 -119 0 -4 8 -12 18 -19 41 -27 370 -262 387
-276 9 -7 122 -89 170 -122 11 -8 49 -35 83 -60 35 -26 66 -45 68 -42 2 2 3
239 2 526 l-3 523 -30 -23z"/>
<path d="M109 3019 c0 -13 -1 -249 -2 -524 l-1 -500 82 -3 82 -3 0 371 c0 203
3 370 6 370 3 0 42 -26 86 -57 44 -32 101 -72 127 -90 25 -18 57 -40 70 -50
29 -22 252 -182 281 -203 37 -26 124 -89 135 -98 6 -5 24 -17 40 -28 17 -10
35 -23 41 -29 6 -5 21 -17 34 -25 40 -28 155 -111 172 -125 37 -30 61 -35 180
-35 l123 1 -26 22 c-14 12 -35 28 -45 35 -81 54 -610 437 -612 444 -2 4 -8 8
-13 8 -6 0 -38 21 -73 48 -35 26 -74 54 -86 62 -12 8 -70 50 -128 92 -59 42
-122 87 -140 100 -17 13 -40 29 -50 35 -9 7 -46 34 -82 60 -36 26 -81 58 -100
72 -19 13 -50 35 -67 49 l-33 24 -1 -23z"/>
<path d="M2075 2756 c-125 -39 -205 -135 -205 -246 0 -86 66 -176 157 -216
197 -88 419 39 409 234 -6 106 -71 186 -180 222 -55 18 -134 20 -181 6z m150
-111 c60 -20 91 -128 57 -195 -30 -59 -69 -76 -165 -71 -34 1 -96 61 -98 93
-6 100 10 139 72 171 33 17 85 18 134 2z"/>
<path d="M2490 2710 c0 -50 0 -50 33 -51 89 -2 102 -4 99 -17 -5 -25 -3 -355
2 -360 3 -3 33 -5 67 -6 l61 -1 2 190 1 190 65 5 65 5 0 45 -1 45 -197 3 -197
2 0 -50z"/>
<path d="M2968 2758 c-1 -2 -2 -110 -3 -240 -1 -163 2 -238 9 -240 10 -3 46
-3 101 1 19 1 20 7 18 213 -1 117 -2 225 -2 241 -1 26 -2 27 -61 27 -33 0 -61
-1 -62 -2z"/>
<path d="M3171 2710 l-2 -49 68 -3 68 -3 0 -187 c0 -121 3 -188 10 -189 16 -1
89 -2 105 0 13 1 15 26 15 179 -1 97 1 183 3 190 3 8 26 12 68 12 l64 0 0 50
0 50 -198 0 -198 0 -3 -50z"/>
<path d="M3649 2723 c-1 -45 0 -424 0 -438 1 -6 28 -10 64 -10 l62 0 0 240 0
240 -62 3 -63 3 -1 -38z"/>
<path d="M3989 2613 c-38 -82 -89 -188 -113 -238 -29 -59 -40 -92 -32 -96 9
-5 55 -5 116 0 8 1 23 21 33 45 21 51 31 54 163 48 l71 -3 13 -37 c7 -20 16
-42 21 -47 8 -10 124 -13 134 -3 3 2 -10 36 -29 74 -87 180 -166 354 -166 368
0 25 -26 36 -82 36 l-58 0 -71 -147z m164 -85 l26 -58 -60 0 c-55 0 -69 6 -51
24 4 4 7 11 7 14 1 19 40 91 46 85 3 -5 18 -34 32 -65z"/>
<path d="M2493 2585 c-3 -9 -3 -18 -1 -21 3 -3 8 4 11 16 6 23 -1 27 -10 5z"/>
<path d="M2510 2530 c5 -10 7 -20 3 -23 -3 -4 2 -9 11 -13 9 -3 13 -11 10 -18
-3 -6 1 -3 9 6 8 10 18 14 23 10 5 -4 0 4 -11 17 -11 13 -20 26 -20 29 0 3 -8
7 -17 7 -13 1 -15 -2 -8 -15z m30 -20 c0 -5 -5 -10 -11 -10 -5 0 -7 5 -4 10 3
6 8 10 11 10 2 0 4 -4 4 -10z"/>
<path d="M2550 2470 c0 -5 5 -10 10 -10 6 0 10 5 10 10 0 6 -4 10 -10 10 -5 0
-10 -4 -10 -10z"/>
<path d="M2769 2279 c-11 -6 -10 -12 5 -28 36 -39 196 -112 278 -126 18 -3 40
-8 48 -10 81 -23 391 -24 428 -1 4 2 23 7 42 10 19 3 45 8 57 10 54 11 146 71
97 63 -11 -1 -25 -7 -33 -11 -10 -7 -12 -5 -6 3 6 10 3 11 -14 1 -12 -6 -32
-13 -44 -16 -24 -5 -58 -11 -98 -19 -108 -20 -250 -25 -339 -11 -86 13 -144
27 -157 37 -7 6 -13 8 -13 4 0 -4 -15 2 -33 12 -18 11 -46 23 -62 27 -16 4
-54 20 -86 36 -35 17 -62 25 -70 19z"/>
<path d="M1955 2101 c2 -13 11 -34 19 -46 28 -42 210 -226 260 -263 28 -20 53
-40 54 -44 2 -5 8 -8 13 -8 6 0 19 -8 29 -18 37 -34 218 -118 390 -180 59 -21
229 -60 295 -67 22 -3 58 -7 80 -11 22 -3 107 -6 189 -7 183 -3 311 8 461 40
39 8 78 16 89 18 104 22 377 142 435 191 30 25 32 29 15 35 -12 4 -29 -1 -45
-12 -15 -10 -46 -27 -70 -38 -24 -10 -66 -28 -94 -41 -83 -37 -88 -39 -145
-59 -88 -31 -182 -57 -242 -66 -15 -2 -53 -9 -86 -15 -33 -6 -81 -12 -108 -15
-64 -6 -298 -6 -349 0 -115 13 -296 50 -365 75 -128 45 -242 92 -328 136 -159
82 -341 228 -459 369 -33 39 -41 45 -38 26z"/>
<path d="M2330 1930 c-25 -25 -19 -37 26 -56 19 -8 34 -19 34 -24 0 -17 -27
-22 -49 -11 -14 8 -22 8 -27 0 -10 -17 17 -30 55 -27 67 6 67 61 1 83 -26 9
-30 14 -20 20 8 5 27 8 42 7 33 -3 37 13 6 22 -37 9 -47 7 -68 -14z"/>
<path d="M2468 1933 c-2 -10 -4 -40 -3 -68 l0 -50 54 -3 c40 -2 52 0 49 10 -3
8 -17 12 -36 10 -27 -3 -32 0 -32 17 0 17 6 21 31 21 17 0 28 4 24 10 -3 6
-17 10 -31 10 -17 0 -24 6 -24 19 0 12 7 18 23 18 39 1 47 3 47 13 0 6 -22 10
-49 10 -38 0 -50 -4 -53 -17z"/>
<path d="M2618 1938 c-2 -7 -3 -38 -3 -68 l0 -55 53 -3 c31 -2 52 1 52 7 0 6
-16 11 -35 11 -28 0 -35 4 -35 20 0 16 7 20 30 20 17 0 30 5 30 10 0 6 -13 10
-29 10 -17 0 -32 4 -36 9 -7 13 14 25 44 26 13 0 26 6 29 13 2 8 -11 12 -46
12 -31 0 -51 -5 -54 -12z"/>
<path d="M2830 1923 c40 -125 58 -140 85 -69 10 25 21 44 25 41 3 -2 12 -22
20 -44 17 -53 36 -52 60 2 29 66 35 97 18 97 -9 0 -21 -19 -30 -47 l-16 -48
-23 48 c-13 26 -28 46 -34 44 -5 -2 -17 -22 -25 -45 -8 -23 -17 -42 -21 -42
-4 0 -13 19 -21 42 -7 25 -20 44 -30 46 -14 3 -16 -1 -8 -25z"/>
<path d="M3096 1893 c2 -82 2 -83 19 -83 10 0 15 10 15 31 0 29 2 30 38 27 24
-2 37 -8 38 -18 1 -8 2 -21 3 -27 0 -7 7 -13 14 -13 8 0 12 20 12 68 0 53 -3
67 -15 67 -10 0 -15 -9 -14 -27 1 -26 -2 -28 -37 -28 -37 0 -39 2 -39 30 0 22
-5 30 -18 30 -15 0 -17 -8 -16 -57z"/>
<path d="M3326 1913 c-44 -90 -48 -103 -30 -103 9 0 18 8 21 18 6 23 60 23 78
-1 13 -18 35 -23 35 -7 0 8 -22 58 -49 110 -15 28 -37 21 -55 -17z m44 -12 c0
-5 3 -16 6 -25 4 -12 0 -16 -15 -16 -22 0 -25 8 -15 34 7 17 24 22 24 7z"/>
<path d="M3460 1936 c0 -10 8 -13 25 -10 24 4 25 2 26 -43 1 -27 1 -54 0 -60
-1 -7 5 -13 14 -13 8 0 15 8 16 18 0 9 1 35 2 57 2 32 6 40 21 40 11 0 21 6
24 13 3 9 -14 12 -62 12 -51 0 -66 -3 -66 -14z"/>
<path d="M3690 1942 c0 -4 11 -23 25 -42 14 -19 25 -47 25 -62 0 -18 5 -28 15
-28 9 0 15 9 15 23 0 13 13 44 29 68 17 24 28 45 26 47 -8 8 -45 -10 -45 -22
0 -8 -6 -19 -13 -25 -10 -8 -19 -4 -36 19 -21 29 -41 39 -41 22z"/>
<path d="M3908 1944 c-24 -7 -48 -49 -43 -76 6 -32 41 -58 80 -58 66 0 107 67
66 111 -18 20 -72 32 -103 23z m65 -23 c4 -1 12 -13 18 -27 19 -52 -41 -84
-81 -44 -29 29 -2 83 38 75 9 -2 20 -4 25 -4z"/>
<path d="M4074 1894 c2 -64 19 -84 72 -84 43 0 64 30 64 92 0 36 -4 48 -15 48
-14 0 -21 -37 -16 -78 3 -17 -18 -42 -35 -42 -26 0 -42 29 -40 75 1 36 -2 45
-15 45 -14 0 -16 -10 -15 -56z"/>
<path d="M4360 1939 c-30 -12 -40 -26 -40 -61 0 -54 68 -86 122 -57 16 9 18
13 7 20 -7 4 -19 4 -25 -2 -21 -17 -64 1 -71 29 -9 37 25 62 75 56 35 -5 36
-5 18 10 -22 18 -49 19 -86 5z"/>
<path d="M4520 1884 c-16 -37 -30 -68 -30 -70 0 -12 31 -1 39 13 13 24 62 23
83 -2 31 -37 31 -6 0 60 -19 39 -37 65 -46 65 -10 0 -28 -26 -46 -66z m70 -16
c0 -9 -34 -11 -43 -2 -3 3 0 15 6 25 11 18 13 18 25 2 6 -9 12 -20 12 -25z"/>
<path d="M4683 1880 c0 -52 3 -70 14 -70 11 0 19 47 14 82 -2 16 26 -5 49 -37
27 -37 50 -51 59 -36 12 19 6 124 -6 129 -13 4 -16 -9 -15 -61 1 -32 -7 -29
-55 24 -50 56 -59 51 -60 -31z"/>
<path d="M4880 1925 c0 -17 5 -25 13 -22 6 2 12 12 12 22 0 10 -6 20 -12 23
-8 2 -13 -6 -13 -23z"/>
<path d="M4945 1940 c-7 -11 6 -18 28 -15 15 3 17 -5 17 -56 0 -46 3 -59 15
-59 8 0 15 6 16 13 0 6 2 32 2 57 2 40 5 45 25 44 12 -1 22 4 22 11 0 15 -116
20 -125 5z"/>
<path d="M5189 1931 c-19 -15 -21 -21 -11 -34 7 -8 26 -20 42 -27 17 -7 30
-16 30 -21 0 -15 -19 -20 -38 -10 -25 13 -54 -4 -32 -19 35 -23 100 -4 100 29
0 23 -17 37 -53 46 -39 10 -18 33 25 28 31 -4 32 -3 14 11 -26 21 -49 20 -77
-3z"/>
<path d="M5329 1948 c-1 -2 -2 -33 -3 -70 l-1 -68 52 0 c29 0 53 5 53 10 0 9
-29 15 -58 11 -8 -2 -12 5 -10 16 2 11 14 19 31 21 37 4 34 22 -4 22 -23 0
-30 4 -27 17 2 12 13 17 32 18 16 0 31 6 34 13 2 8 -11 12 -47 12 -28 0 -52
-1 -52 -2z"/>
<path d="M5475 1938 c-2 -7 -3 -38 -2 -68 l2 -55 49 -3 c27 -2 54 2 59 7 8 8
1 11 -23 12 -19 1 -38 1 -42 0 -5 0 -8 8 -8 19 0 16 7 20 30 20 17 0 30 5 30
10 0 6 -13 10 -30 10 -22 0 -30 5 -30 18 0 13 8 17 32 17 17 0 33 6 35 13 3 8
-10 12 -46 12 -33 0 -53 -5 -56 -12z"/>
<path d="M1215 1890 c-3 -6 -1 -10 4 -10 6 0 11 -5 11 -11 0 -6 11 -25 25 -43
14 -17 29 -35 33 -41 46 -62 102 -131 142 -175 95 -104 120 -130 124 -130 2 0
23 -18 45 -40 22 -22 43 -40 45 -40 6 0 28 -17 79 -63 44 -38 192 -137 206
-137 6 0 11 -4 11 -10 0 -5 7 -10 15 -10 8 0 15 -3 15 -8 0 -4 15 -13 33 -21
17 -8 43 -22 57 -31 34 -24 251 -121 273 -123 9 -1 17 -4 17 -7 0 -3 21 -12
48 -19 26 -7 56 -16 67 -19 11 -3 22 -6 25 -7 3 0 11 -4 18 -8 6 -5 12 -6 12
-3 0 3 21 -2 48 -10 26 -8 63 -17 82 -20 19 -3 39 -9 45 -12 5 -3 28 -8 50
-10 22 -2 45 -8 52 -14 9 -7 13 -7 13 0 0 5 -8 13 -17 17 -10 3 -18 6 -18 5 0
-1 -13 4 -30 10 -16 7 -43 13 -60 14 -16 2 -40 8 -53 15 -12 6 -27 9 -32 6 -6
-3 -10 -1 -10 6 0 6 -8 9 -20 6 -11 -3 -20 -1 -20 5 0 6 -6 8 -13 5 -8 -3 -33
3 -55 13 -23 11 -42 17 -42 15 0 -2 -44 15 -97 37 -54 22 -104 40 -110 41 -7
0 -13 4 -13 9 0 4 -5 8 -11 8 -15 0 -143 63 -147 72 -2 4 -12 8 -22 8 -10 0
-20 4 -22 8 -1 5 -30 23 -63 42 -33 19 -66 40 -73 47 -7 7 -17 13 -21 13 -5 0
-47 30 -93 68 -47 37 -103 81 -124 97 -78 61 -207 200 -317 340 -78 101 -104
128 -112 115z"/>
<path d="M5212 1658 c-81 -87 -187 -192 -223 -220 -16 -12 -46 -38 -67 -56
-48 -42 -208 -152 -222 -152 -5 0 -10 -3 -10 -7 0 -5 -15 -16 -33 -27 -56 -32
-261 -136 -268 -136 -4 0 -36 -13 -71 -29 -35 -16 -75 -33 -90 -36 -16 -4 -26
-10 -24 -14 2 -3 -6 -7 -17 -7 -22 -2 -39 -6 -67 -17 -24 -9 -74 -20 -82 -19
-5 1 -8 -3 -8 -8 0 -5 -3 -9 -7 -9 -26 4 -43 -3 -43 -18 0 -11 3 -14 8 -7 7
11 74 29 100 27 6 0 12 2 12 6 0 4 8 8 18 9 20 2 41 7 62 14 51 18 147 49 155
52 6 1 27 10 49 19 21 9 40 17 42 17 7 0 219 104 224 109 3 3 16 12 29 19 13
8 40 23 60 34 39 22 93 58 101 68 3 4 28 21 55 40 28 19 52 36 55 39 3 4 30
26 60 51 62 50 153 140 190 189 14 17 38 46 53 62 16 17 26 37 23 44 -3 10 0
12 11 8 11 -4 14 -2 9 5 -13 21 -25 13 -84 -50z"/>
<path d="M3933 908 c-18 -6 -33 -15 -33 -19 0 -12 17 -11 25 0 3 6 14 8 25 6
13 -2 20 2 20 11 0 8 -1 14 -2 13 -2 -1 -18 -6 -35 -11z"/>
<path d="M3881 884 c0 -11 3 -14 6 -6 3 7 2 16 -1 19 -3 4 -6 -2 -5 -13z"/>
<path d="M2820 886 c0 -2 8 -10 18 -17 15 -13 16 -12 3 4 -13 16 -21 21 -21
13z"/>
<path d="M3810 878 c0 -4 -10 -6 -22 -5 -39 3 -119 -14 -113 -24 4 -5 14 -5
26 2 11 5 30 10 42 9 12 -1 24 -1 27 0 3 1 21 4 40 6 19 2 41 5 48 6 26 3 10
17 -18 15 -16 -1 -30 -5 -30 -9z"/>
<path d="M2955 850 c-3 -6 1 -7 9 -4 18 7 21 14 7 14 -6 0 -13 -4 -16 -10z"/>
</g>
</svg>
